<?xml version="1.0" standalone="no"?>
<!DOCTYPE svg PUBLIC "-//W3C//DTD SVG 20010904//EN"
 "http://www.w3.org/TR/2001/REC-SVG-20010904/DTD/svg10.dtd">
<svg version="1.0" xmlns="http://www.w3.org/2000/svg"
 width="512.000000pt" height="512.000000pt" viewBox="0 0 512.000000 512.000000"
 preserveAspectRatio="xMidYMid meet">

<g transform="translate(0.000000,512.000000) scale(0.100000,-0.100000)"
fill="#000000" stroke="none">
<path d="M336 5109 c-163 -27 -299 -166 -326 -336 -13 -78 -13 -4348 0 -4426
28 -174 162 -309 335 -337 82 -13 4348 -13 4430 0 173 28 307 163 335 337 13
80 13 4348 0 4428 -28 173 -163 307 -337 335 -72 12 -4366 11 -4437 -1z m1339
-1230 c63 -30 124 -90 156 -154 20 -43 24 -64 24 -145 0 -80 -4 -102 -23 -138
-109 -205 -362 -250 -525 -94 -60 57 -89 124 -95 213 -9 157 71 279 218 333
64 23 180 16 245 -15z m1790 -843 c261 -69 396 -255 434 -600 7 -56 11 -327
11 -661 l0 -565 -280 0 -280 0 0 478 c0 506 -7 627 -40 716 -27 72 -91 129
-162 146 -62 15 -180 8 -234 -15 -88 -37 -153 -133 -174 -257 -6 -37 -10 -272
-10 -565 l0 -503 -285 0 -285 0 2 903 3 902 270 0 270 0 5 -120 c3 -80 8 -112
13 -97 5 12 37 51 73 87 74 74 189 136 294 160 82 19 289 13 375 -9z m-1647
-923 l2 -903 -285 0 -285 0 0 898 c0 494 3 902 7 905 4 4 131 6 282 5 l276 -3
3 -902z"/>
</g>
</svg>
